<?xml version="1.0" encoding="UTF-8"?>
<svg version="1.1" xmlns="http://www.w3.org/2000/svg" width="90" height="89">
<path d="M0 0 C1.65 0 3.3 0 5 0 C5.24121582 0.62455078 5.48243164 1.24910156 5.73095703 1.89257812 C6.84951116 4.76688459 7.98707699 7.63330933 9.125 10.5 C9.50398438 11.48226563 9.88296875 12.46453125 10.2734375 13.4765625 C13.22561307 20.85700142 16.66322413 29.20063743 24.375 32.625 C25.21675781 33.00914063 26.05851562 33.39328125 26.92578125 33.7890625 C29.32948054 34.73588179 31.7284367 35.61532103 34.16796875 36.4609375 C34.89258301 36.71665527 35.61719727 36.97237305 36.36376953 37.23583984 C37.81197144 37.73915674 39.26752174 38.22187776 40.72998047 38.68212891 C42.75390625 39.375 42.75390625 39.375 46 41 C46.96484375 43.6875 46.96484375 43.6875 47 46 C45.25 46.72916667 43.5 47.45833333 41.75 48.1875 C40.11417969 48.87392578 40.11417969 48.87392578 38.4453125 49.57421875 C36.22008862 50.49508804 33.98607231 51.39511571 31.7421875 52.26953125 C30.71351562 52.67558594 29.68484375 53.08164062 28.625 53.5 C27.68914062 53.8609375 26.75328125 54.221875 25.7890625 54.59375 C19.70436228 57.66166608 16.34029819 61.40062646 13.4375 67.5 C13.14866943 68.10150879 12.85983887 68.70301758 12.56225586 69.32275391 C9.69289076 75.4107291 7.28171791 81.67007289 5 88 C3.35 88 1.7 88 0 88 C-0.24121582 87.37544922 -0.48243164 86.75089844 -0.73095703 86.10742188 C-1.84951116 83.23311541 -2.98707699 80.36669067 -4.125 77.5 C-4.50398438 76.51773438 -4.88296875 75.53546875 -5.2734375 74.5234375 C-8.22561307 67.14299858 -11.66322413 58.79936257 -19.375 55.375 C-20.63763672 54.79878906 -20.63763672 54.79878906 -21.92578125 54.2109375 C-24.32948054 53.26411821 -26.7284367 52.38467897 -29.16796875 51.5390625 C-29.89258301 51.28334473 -30.61719727 51.02762695 -31.36376953 50.76416016 C-32.81197144 50.26084326 -34.26752174 49.77812224 -35.72998047 49.31787109 C-37.75390625 48.625 -37.75390625 48.625 -41 47 C-41.96484375 44.3125 -41.96484375 44.3125 -42 42 C-40.25 41.27083333 -38.5 40.54166667 -36.75 39.8125 C-35.11224609 39.12414063 -35.11224609 39.12414063 -33.44140625 38.421875 C-31.23130428 37.50873412 -29.0104489 36.62097194 -26.77734375 35.765625 C-25.75769531 35.36859375 -24.73804687 34.9715625 -23.6875 34.5625 C-22.76324219 34.21316406 -21.83898437 33.86382812 -20.88671875 33.50390625 C-13.42019073 29.61403712 -9.84060819 24.83864294 -6.75 17.125 C-6.26273438 15.97837891 -6.26273438 15.97837891 -5.765625 14.80859375 C-3.70840861 9.92270482 -1.83510856 4.97291763 0 0 Z M2 25 C1.6596875 25.56847656 1.319375 26.13695313 0.96875 26.72265625 C-3.40704613 33.69367189 -8.40628655 39.50689181 -16 43 C-16 43.66 -16 44.32 -16 45 C-14.20979181 46.30925737 -14.20979181 46.30925737 -11.9375 47.625 C-5.62053398 51.68377502 -1.42958915 57.03199067 3 63 C3.3403125 62.43152344 3.680625 61.86304688 4.03125 61.27734375 C8.40704613 54.30632811 13.40628655 48.49310819 21 45 C21 44.34 21 43.68 21 43 C19.20979181 41.69074263 19.20979181 41.69074263 16.9375 40.375 C10.62053398 36.31622498 6.42958915 30.96800933 2 25 Z " fill="#FFFFFF" transform="translate(42,0)"/>
</svg>
